<svg xmlns="http://www.w3.org/2000/svg" viewBox="0 0 64 64"><title>icon-nofill</title><rect width="64" height="64" fill="none"/><path d="M23.12,51.83a12.53,12.53,0,0,1-5.45-1.18,13.39,13.39,0,0,1-4.29-3.17,14.63,14.63,0,0,1-2.82-4.71A16.46,16.46,0,0,1,9.5,37a16.91,16.91,0,0,1,1-5.77,14.63,14.63,0,0,1,2.74-4.71,13.19,13.19,0,0,1,4.13-3.17,11.44,11.44,0,0,1,5.17-1.18,11.06,11.06,0,0,1,6,1.64,11.43,11.43,0,0,1,4.05,4.27V23h6V51.28h-6V46.19a11.38,11.38,0,0,1-3.86,4.13,10.29,10.29,0,0,1-5.66,1.51m9.52-18.22a10.52,10.52,0,0,0-3.31-4.54,7.79,7.79,0,0,0-4.95-1.76,7.34,7.34,0,0,0-3.5.85,8.87,8.87,0,0,0-2.71,2.22,10.07,10.07,0,0,0-1.75,3.15,10.73,10.73,0,0,0,0,7.3,9.23,9.23,0,0,0,1.84,3,8.93,8.93,0,0,0,2.79,2.05,8.11,8.11,0,0,0,3.53.77,7.67,7.67,0,0,0,4.84-1.59,10.85,10.85,0,0,0,3.2-4.05Z" fill="#1c2442"/><path d="M54.5,46.77a5.06,5.06,0,1,1-5.06-5.06,5.07,5.07,0,0,1,5.06,5.06" fill="#00a482"/></svg>