<?xml version="1.0" standalone="no"?>
<!DOCTYPE svg PUBLIC "-//W3C//DTD SVG 20010904//EN"
 "http://www.w3.org/TR/2001/REC-SVG-20010904/DTD/svg10.dtd">
<svg version="1.0" xmlns="http://www.w3.org/2000/svg"
 width="271.000000pt" height="271.000000pt" viewBox="0 0 271.000000 271.000000"
 preserveAspectRatio="xMidYMid meet">

<g transform="translate(0.000000,271.000000) scale(0.100000,-0.100000)"
fill="#fc4545" stroke="none">
<path d="M1260 2684 c-8 -1 -62 -10 -120 -19 -274 -44 -502 -159 -707 -358
-249 -241 -378 -525 -409 -894 -11 -138 32 -387 96 -549 131 -330 407 -607
735 -740 166 -67 416 -112 558 -100 369 31 653 161 895 410 246 254 376 572
376 921 0 568 -367 1080 -905 1260 -157 52 -429 89 -519 69z m360 -143 c359
-81 676 -335 830 -663 89 -193 113 -302 113 -523 0 -221 -24 -330 -113 -523
-79 -168 -215 -334 -370 -451 -134 -101 -343 -192 -510 -222 -93 -17 -342 -17
-430 0 -240 45 -466 165 -641 340 -175 175 -295 401 -340 641 -17 88 -17 337
0 430 18 99 73 256 124 354 174 337 525 582 909 636 96 14 330 3 428 -19z"/>
<path d="M1182 1899 c-13 -5 -42 -25 -65 -44 -39 -33 -44 -35 -117 -35 -89 0
-112 -12 -154 -85 -24 -40 -32 -46 -96 -65 -77 -23 -104 -48 -121 -114 -5 -22
-12 -48 -15 -57 -2 -9 -30 -33 -60 -53 -69 -46 -86 -82 -78 -163 5 -57 5 -59
-35 -106 -47 -56 -55 -77 -47 -121 10 -54 70 -96 137 -96 22 0 29 -5 29 -20 0
-12 9 -22 23 -25 12 -3 368 -4 792 -3 l769 3 6 25 c5 22 12 26 64 30 49 5 62
10 82 35 38 48 33 101 -16 166 -38 51 -40 57 -40 124 0 83 -9 99 -85 155 -39
29 -55 48 -60 72 -22 99 -57 136 -147 152 -25 5 -45 17 -60 38 -13 16 -39 48
-59 69 -36 39 -38 39 -111 39 -70 0 -76 2 -127 40 -70 53 -90 57 -157 31 -69
-26 -85 -26 -152 -1 -58 22 -66 23 -100 9z m98 -69 c64 -25 81 -25 158 2 l62
22 30 -22 c98 -73 101 -74 166 -69 72 7 89 -2 130 -68 30 -47 63 -68 130 -85
51 -12 57 -20 78 -93 18 -63 28 -75 99 -124 l47 -33 0 -74 c0 -69 3 -77 35
-122 61 -85 63 -93 32 -120 -17 -15 -41 -24 -61 -24 -32 0 -33 1 -45 67 -16
90 -63 207 -112 283 -200 310 -584 442 -934 322 -257 -89 -468 -327 -516 -583
-6 -35 -13 -70 -15 -76 -5 -18 -65 -16 -92 3 -32 22 -27 56 17 109 44 53 53
85 45 149 -8 55 0 69 62 109 51 33 74 68 96 147 12 41 17 46 58 58 86 25 109
40 145 96 38 60 57 70 110 60 55 -10 96 3 149 46 26 22 54 40 62 40 7 0 36 -9
64 -20z m222 -165 c145 -30 266 -95 373 -200 82 -81 135 -163 175 -274 27 -74
52 -205 42 -216 -3 -3 -335 -5 -739 -5 l-733 0 0 33 c0 19 9 69 20 113 68 272
291 489 564 549 81 17 216 18 298 0z"/>
<path d="M1307 1524 c-12 -12 -8 -42 6 -47 21 -8 39 8 35 29 -3 19 -29 30 -41
18z"/>
<path d="M1214 1485 c-8 -19 3 -35 26 -35 19 0 30 17 23 38 -6 17 -42 15 -49
-3z"/>
<path d="M1284 1415 c-8 -20 4 -35 27 -35 14 0 19 7 19 25 0 18 -5 25 -20 25
-11 0 -23 -7 -26 -15z"/>
<path d="M1525 1380 c-25 -10 -50 -38 -41 -47 3 -4 16 3 29 15 29 27 44 27 82
2 20 -13 47 -20 79 -20 57 0 54 13 -2 16 -21 1 -54 11 -73 23 -37 23 -44 24
-74 11z"/>
<path d="M933 1316 c-36 -31 -24 -45 15 -17 38 27 43 26 100 -4 48 -26 142
-35 142 -15 0 6 -18 10 -40 10 -24 0 -62 11 -90 25 -62 31 -91 32 -127 1z"/>
<path d="M1760 1234 c-11 -12 -10 -18 3 -32 16 -15 18 -15 33 0 19 18 12 48
-9 48 -8 0 -20 -7 -27 -16z"/>
<path d="M1393 1233 c-7 -3 -13 -16 -13 -29 0 -17 5 -24 20 -24 11 0 23 7 27
16 7 18 -16 44 -34 37z"/>
<path d="M1854 1226 c-9 -24 4 -48 23 -44 12 2 18 12 18 28 0 29 -32 41 -41
16z"/>
<path d="M1467 1207 c-8 -21 8 -39 29 -35 27 5 25 42 -2 46 -12 2 -24 -3 -27
-11z"/>
<path d="M881 1186 c-15 -18 -3 -46 20 -46 25 0 35 26 19 45 -15 19 -24 19
-39 1z"/>
<path d="M791 1157 c-8 -10 -7 -19 4 -33 13 -18 15 -18 31 -2 18 18 13 48 -9
48 -8 0 -20 -6 -26 -13z"/>
<path d="M1420 1135 c-11 -13 -11 -19 3 -32 21 -21 49 -9 45 19 -4 28 -30 35
-48 13z"/>
<path d="M1797 1144 c-12 -12 -8 -42 6 -47 21 -8 39 8 35 29 -3 19 -29 30 -41
18z"/>
<path d="M867 1104 c-12 -12 -8 -42 6 -47 21 -8 39 8 35 29 -3 19 -29 30 -41
18z"/>
<path d="M1160 1095 c-15 -18 -7 -19 20 -3 16 10 25 9 49 -5 31 -18 81 -23 81
-7 0 5 -7 7 -15 4 -8 -3 -29 1 -46 10 -40 20 -73 20 -89 1z"/>
</g>
</svg>
